Coordinates
version=1
nRows=10
nColumns=63
inDegrees=yes

Units are S.I. units (second, meters, Newtons, ...)
If the header above contains a line with 'inDegrees', this indicates whether rotational values are in degrees (yes) or radians (no).

endheader
time	pelvis_tilt	pelvis_list	pelvis_rotation	pelvis_tx	pelvis_ty	pelvis_tz	hip_flexion_r	hip_adduction_r	hip_rotation_r	knee_angle_r	knee_angle_r_beta	ankle_angle_r	subtalar_angle_r	mtp_angle_r	hip_flexion_l	hip_adduction_l	hip_rotation_l	knee_angle_l	knee_angle_l_beta	ankle_angle_l	subtalar_angle_l	mtp_angle_l	L5_S1_Flex_Ext	L5_S1_Lat_Bending	L5_S1_axial_rotation	L4_L5_Flex_Ext	L4_L5_Lat_Bending	L4_L5_axial_rotation	L3_L4_Flex_Ext	L3_L4_Lat_Bending	L3_L4_axial_rotation	L2_L3_Flex_Ext	L2_L3_Lat_Bending	L2_L3_axial_rotation	L1_L2_Flex_Ext	L1_L2_Lat_Bending	L1_L2_axial_rotation	L1_T12_Flex_Ext	L1_T12_Lat_Bending	L1_T12_axial_rotation	Abs_r3	Abs_r2	Abs_r1	Abs_t1	Abs_t2	neck_flexion	neck_bending	neck_rotation	arm_flex_r	arm_add_r	arm_rot_r	elbow_flex_r	pro_sup_r	wrist_flex_r	wrist_dev_r	arm_flex_l	arm_add_l	arm_rot_l	elbow_flex_l	pro_sup_l	wrist_flex_l	wrist_dev_l
      0.00000000	     -0.29041602	     -2.99783070	     94.40076471	      0.26244027	      0.97961611	      0.41625141	      1.38255602	     -0.13524169	    -11.21301847	      6.96889294	      0.12163013	     33.84537980	      1.28417751	      0.00000000	      3.59276121	     -1.66110199	     19.48143649	      6.41840404	      0.11202228	     35.72665661	      0.32122099	      0.00000000	      0.20933096	      0.26209173	     -1.29878537	      0.38874853	      0.34858199	     -1.37995945	      0.34390984	      0.63724982	     -1.37995945	      0.23924436	      0.63724982	     -1.13643720	      0.19438473	      0.53445745	     -1.05526311	      0.11961171	      0.40598008	     -0.97408903	      1.49523013	      2.96483401	     -7.22345458	      0.00000000	      0.00000000	     16.25298256	     -1.21535671	      8.76734637	     21.86693733	    -16.13435216	     93.40172117	     52.85158447	      3.13346101	      1.19995031	      0.40382214	     16.72843209	    -10.15402235	     69.40600980	     45.58337088	     76.89398395	      2.38516854	    -13.38725353
      0.02040816	     -0.78957118	     -2.78967190	     94.09905050	      0.26245311	      0.97991222	      0.41503652	      0.53606900	     -0.37382326	     -6.33924067	      5.74540354	      0.10027621	     33.43128026	     -3.35465515	      0.00000000	      2.54269543	     -1.10406930	     23.45756522	      5.16607848	      0.09016508	     34.50479312	     -4.71671189	      0.00000000	      0.20647838	      0.19503812	     -1.25521630	      0.38345101	      0.25940070	     -1.33366732	      0.33922334	      0.47421568	     -1.33366732	      0.23598414	      0.47421568	     -1.09831426	      0.19173583	      0.39772173	     -1.01986324	      0.11798175	      0.30211405	     -0.94141223	      1.47485445	      2.20631021	     -6.98113650	      0.00000000	      0.00000000	     17.05533273	     -0.86345219	      8.15167683	     22.48538029	    -16.59054724	     94.05494043	     53.94931383	      2.93228163	      0.94085145	      2.84594416	     17.14074781	    -10.01089677	     68.52929003	     46.71366339	     76.52248218	      2.03246440	    -13.44083064
      0.04081633	     -1.08750495	     -2.65455230	     93.87973133	      0.26197155	      0.98038962	      0.41482515	      0.09370216	     -0.67762629	     -4.46345468	      5.14782833	      0.08984655	     33.33455365	     -4.72334296	      0.00000000	      2.05792760	     -0.79417543	     24.20285546	      4.60466793	      0.08036662	     34.15899485	     -5.47933472	      0.00000000	      0.19675409	      0.17094621	     -1.26226565	      0.36539202	      0.22735845	     -1.34115725	      0.32324730	      0.41563860	     -1.34115725	      0.22487025	      0.41563860	     -1.10448244	      0.18270585	      0.34859350	     -1.02559084	      0.11242529	      0.26479567	     -0.94669923	      1.40539480	      1.93377767	     -7.02034284	      0.00000000	      0.00000000	     17.44086209	     -0.54766846	      8.48012547	     23.56383556	    -17.09133687	     95.10913606	     55.01811934	      4.11301063	      1.98273611	      0.87519998	     17.14414605	    -10.39217771	     66.50713410	     48.34868458	     75.98392564	      0.97441050	    -13.29564176
      0.06122449	     -1.25702502	     -2.65605104	     93.60567730	      0.26137574	      0.98083044	      0.41475797	     -0.11031465	     -0.88538907	     -2.70793373	      4.71280937	      0.08225404	     32.70883460	     -6.34649376	      0.00000000	      1.76154148	     -0.60058622	     24.87690341	      4.10165918	      0.07158746	     33.75721902	     -6.23249593	      0.00000000	      0.20563955	      0.17222157	     -1.25522421	      0.38189320	      0.22905469	     -1.33367572	      0.33784521	      0.41873952	     -1.33367572	      0.23502544	      0.41873952	     -1.09832118	      0.19095688	      0.35119422	     -1.01986967	      0.11750244	      0.26677121	     -0.94141816	      1.46886272	      1.94820482	     -6.98118049	      0.00000000	      0.00000000	     17.52675822	     -0.42318599	      9.14926025	     24.20442001	    -17.73938907	     94.62717797	     56.04272624	      8.53014335	      2.73427495	     -2.68530864	     16.84979566	    -11.09868865	     63.89744085	     50.29004196	     75.57015587	     -0.15766417	    -12.95083456
      0.08163265	     -1.32132683	     -2.64564215	     93.45598910	      0.26045866	      0.98133245	      0.41501177	     -0.26628601	     -0.99502055	     -0.91077755	      4.39624824	      0.07672901	     31.74369960	     -8.48226523	      0.00000000	      1.58070442	     -0.47721487	     25.71267440	      3.78433209	      0.06604905	     33.35329974	     -7.13411957	      0.00000000	      0.19990102	      0.19442570	     -1.27943433	      0.37123618	      0.25858618	     -1.35939898	      0.32841738	      0.47272664	     -1.35939898	      0.22846687	      0.47272664	     -1.11950504	      0.18562809	      0.39647289	     -1.03954040	      0.11422344	      0.30116541	     -0.95957575	      1.42787299	      2.19938239	     -7.11582993	      0.00000000	      0.00000000	     17.56726566	     -0.38337776	     10.22683660	     24.44526733	    -18.40641976	     92.42322033	     56.74514546	     17.20299902	      2.71106254	     -6.21515261	     16.33048960	    -11.94469033	     60.84641390	     52.32765551	     75.00866088	     -1.44006614	    -12.59711639
      0.10204082	     -1.31798634	     -2.71682398	     93.25278347	      0.25975563	      0.98171685	      0.41532982	     -0.21272574	     -1.05439456	      0.32458814	      4.29148130	      0.07490048	     30.74403702	    -10.09527966	      0.00000000	      1.52961715	     -0.43179347	     26.29687029	      3.53478057	      0.06169356	     32.95565584	     -7.87852884	      0.00000000	      0.20412188	      0.22336383	     -1.26872042	      0.37907475	      0.29707390	     -1.34801545	      0.33535184	      0.54308682	     -1.34801545	      0.23329090	      0.54308682	     -1.11013037	      0.18954758	      0.45548353	     -1.03083534	      0.11663524	      0.34599058	     -0.95154032	      1.45802219	      2.52673636	     -7.05624237	      0.00000000	      0.00000000	     17.48734609	     -0.38640661	     11.17999104	     24.03282891	    -19.09865714	     88.57645093	     57.61420686	     24.83123452	      2.11261053	     -8.01338706	     15.87532406	    -12.80817219	     58.21683351	     54.29713723	     73.82232114	     -2.84475431	    -12.01700286
      0.12244898	     -1.31823090	     -2.80051755	     93.12218579	      0.25921962	      0.98193757	      0.41572030	     -0.10744756	     -1.11704223	      1.21876398	      4.25017179	      0.07417949	     30.00044090	    -11.24503921	      0.00000000	      1.52559992	     -0.39811351	     26.91110069	      3.33760232	      0.05825215	     32.58837555	     -8.59230625	      0.00000000	      0.21040875	      0.24068933	     -1.24712305	      0.39075009	      0.32011681	     -1.32506824	      0.34568054	      0.58521203	     -1.32506824	      0.24047616	      0.58521203	     -1.09123267	      0.19538557	      0.49081368	     -1.01328748	      0.12022756	      0.37282777	     -0.93534229	      1.50292867	      2.72272582	     -6.93612426	      0.00000000	      0.00000000	     17.48127293	     -0.35477346	     11.55172346	     23.13536803	    -19.65086527	     84.00068087	     58.39972219	     30.24974782	      2.00863678	     -8.09133554	     15.94725308	    -13.46424644	     56.67670018	     55.73610386	     71.57285000	     -4.04231372	    -11.46563398
      0.14285714	     -1.28654921	     -2.87239896	     92.94863748	      0.25894235	      0.98207922	      0.41629899	      0.12465341	     -1.14987257	      1.37773560	      4.43943034	      0.07748268	     29.35038417	    -11.60532150	      0.00000000	      1.56902977	     -0.40106784	     27.19095790	      3.26131245	      0.05692064	     32.32325207	     -9.13523076	      0.00000000	      0.21419534	      0.25857802	     -1.20615048	      0.39778217	      0.34390877	     -1.28153489	      0.35190153	      0.62870660	     -1.28153489	      0.24480385	      0.62870660	     -1.05538167	      0.19890179	      0.52729230	     -0.97999727	      0.12239122	      0.40053735	     -0.90461286	      1.52997590	      2.92508628	     -6.70824715	      0.00000000	      0.00000000	     17.66957177	     -0.20989084	     11.93233619	     22.60010982	    -19.96372074	     80.99523947	     58.93841249	     33.59464547	      1.82257141	     -8.08828344	     16.51328624	    -13.98010820	     56.40429659	     56.65466253	     68.51169449	     -5.48771889	    -10.77058461
      0.16326531	     -1.29783435	     -2.90400379	     92.83888304	      0.25868970	      0.98213267	      0.41659289	      0.23366378	     -1.22855682	      1.40312105	      4.48159708	      0.07821862	     29.08970463	    -11.53561228	      0.00000000	      1.57804645	     -0.37959684	     27.15666078	      3.21576086	      0.05612561	     32.32855223	     -9.16330016	      0.00000000	      0.22628273	      0.26541664	     -1.23214148	      0.42022966	      0.35300413	     -1.30915032	      0.37175990	      0.64533402	     -1.30915032	      0.25861853	      0.64533402	     -1.07812380	      0.21012614	      0.54123761	     -1.00111495	      0.12929795	      0.41113037	     -0.92410611	      1.61631491	      3.00244611	     -6.85280128	      0.00000000	      0.00000000	     17.66704361	     -0.17934066	     11.93300923	     22.82307508	    -19.97551286	     80.80066588	     59.08067299	     33.63705081	      1.84601146	     -8.15572208	     16.97030990	    -14.24191309	     56.19923755	     56.58994221	     68.41447497	     -5.53536889	    -10.70645796
      0.18367347	     -1.27070051	     -2.98448301	     92.74936070	      0.25893176	      0.98200207	      0.41756561	      0.63090015	     -1.22991139	      1.55672813	      4.85072551	      0.08466113	     28.80900634	    -11.69121100	      0.00000000	      1.79269734	     -0.40922881	     25.92644759	      3.30928552	      0.05775793	     32.59881842	     -7.90341839	      0.00000000	      0.22055454	      0.26520951	     -1.16138473	      0.40959184	      0.35272865	     -1.23397128	      0.36234906	      0.64483040	     -1.23397128	      0.25207179	      0.64483040	     -1.01621164	      0.20480695	      0.54081523	     -0.94362509	      0.12602487	      0.41080953	     -0.87103855	      1.57539905	      3.00010301	     -6.45927345	      0.00000000	      0.00000000	     18.43979072	      0.26782687	     11.78564022	     22.33422152	    -20.11391169	     79.49074135	     58.67310255	     37.85151741	      2.65619085	     -7.36294627	     19.47862520	    -14.77120222	     61.60123247	     56.53993090	     61.90466954	     -6.93381635	    -10.62733252
